<svg width="18" height="19" viewBox="0 0 18 19" fill="none" xmlns="http://www.w3.org/2000/svg">
<path d="M9 16.562C13.1421 16.562 16.5 13.2041 16.5 9.06201C16.5 4.91988 13.1421 1.56201 9 1.56201C4.85786 1.56201 1.5 4.91988 1.5 9.06201C1.5 13.2041 4.85786 16.562 9 16.562Z" fill="#FCFBFF"/>
<path d="M7.49999 11.0053L12.225 6.28033C12.3693 6.1584 12.5544 6.09545 12.7431 6.10405C12.9319 6.11265 13.1104 6.19217 13.243 6.32672C13.3757 6.46126 13.4527 6.64092 13.4586 6.82976C13.4645 7.01861 13.399 7.20273 13.275 7.34533L8.02499 12.5953C7.8848 12.7327 7.69631 12.8097 7.49999 12.8097C7.30368 12.8097 7.11519 12.7327 6.97499 12.5953L4.72499 10.3453C4.60103 10.2027 4.53546 10.0186 4.54138 9.82976C4.54731 9.64091 4.62429 9.46126 4.75694 9.32672C4.88959 9.19217 5.06813 9.11265 5.25688 9.10405C5.44562 9.09545 5.63066 9.1584 5.77499 9.28033L7.49999 11.0053Z" fill="#230C41"/>
</svg>
