<svg width="165" height="19" viewBox="0 0 165 19" fill="none" xmlns="http://www.w3.org/2000/svg">
<path d="M12.715 6.48C12.411 5.92 11.971 5.496 11.395 5.208C10.835 4.904 10.171 4.752 9.40297 4.752C8.07497 4.752 7.01097 5.192 6.21097 6.072C5.41097 6.936 5.01097 8.096 5.01097 9.552C5.01097 11.104 5.42697 12.32 6.25897 13.2C7.10697 14.064 8.26697 14.496 9.73897 14.496C10.747 14.496 11.595 14.24 12.283 13.728C12.987 13.216 13.499 12.48 13.819 11.52H8.61097V8.496H17.539V12.312C17.235 13.336 16.715 14.288 15.979 15.168C15.259 16.048 14.339 16.76 13.219 17.304C12.099 17.848 10.835 18.12 9.42697 18.12C7.76297 18.12 6.27497 17.76 4.96297 17.04C3.66697 16.304 2.65097 15.288 1.91497 13.992C1.19497 12.696 0.834969 11.216 0.834969 9.552C0.834969 7.888 1.19497 6.408 1.91497 5.112C2.65097 3.8 3.66697 2.784 4.96297 2.064C6.25897 1.328 7.73897 0.959999 9.40297 0.959999C11.419 0.959999 13.115 1.448 14.491 2.424C15.883 3.4 16.803 4.752 17.251 6.48H12.715ZM26.1242 1.152C27.9002 1.152 29.4522 1.504 30.7802 2.208C32.1082 2.912 33.1322 3.904 33.8522 5.184C34.5882 6.448 34.9562 7.912 34.9562 9.576C34.9562 11.224 34.5882 12.688 33.8522 13.968C33.1322 15.248 32.1002 16.24 30.7562 16.944C29.4282 17.648 27.8842 18 26.1242 18H19.8122V1.152H26.1242ZM25.8602 14.448C27.4122 14.448 28.6202 14.024 29.4842 13.176C30.3482 12.328 30.7802 11.128 30.7802 9.576C30.7802 8.024 30.3482 6.816 29.4842 5.952C28.6202 5.088 27.4122 4.656 25.8602 4.656H23.9162V14.448H25.8602ZM52.5837 14.28H45.2877L43.9437 18H41.6397L47.6877 1.368H50.2077L56.2317 18H53.9277L52.5837 14.28ZM51.9597 12.504L48.9357 4.056L45.9117 12.504H51.9597ZM72.0195 18H69.8355L61.0515 4.68V18H58.8675V1.248H61.0515L69.8355 14.544V1.248H72.0195V18ZM85.6305 14.28H78.3345L76.9905 18H74.6865L80.7345 1.368H83.2545L89.2785 18H86.9745L85.6305 14.28ZM85.0065 12.504L81.9825 4.056L78.9585 12.504H85.0065ZM94.0984 16.224H99.9544V18H91.9144V1.272H94.0984V16.224ZM113.986 1.272L108.538 11.688V18H106.354V11.688L100.882 1.272H103.306L107.434 9.744L111.562 1.272H113.986ZM126.585 1.272V3.048H122.025V18H119.841V3.048H115.257V1.272H126.585ZM131.458 1.272V18H129.274V1.272H131.458ZM134.364 9.624C134.364 7.992 134.732 6.528 135.468 5.232C136.204 3.92 137.204 2.896 138.468 2.16C139.748 1.424 141.164 1.056 142.716 1.056C144.54 1.056 146.132 1.496 147.492 2.376C148.852 3.256 149.844 4.504 150.468 6.12H147.852C147.388 5.112 146.716 4.336 145.836 3.792C144.972 3.248 143.932 2.976 142.716 2.976C141.548 2.976 140.5 3.248 139.572 3.792C138.644 4.336 137.916 5.112 137.388 6.12C136.86 7.112 136.596 8.28 136.596 9.624C136.596 10.952 136.86 12.12 137.388 13.128C137.916 14.12 138.644 14.888 139.572 15.432C140.5 15.976 141.548 16.248 142.716 16.248C143.932 16.248 144.972 15.984 145.836 15.456C146.716 14.912 147.388 14.136 147.852 13.128H150.468C149.844 14.728 148.852 15.968 147.492 16.848C146.132 17.712 144.54 18.144 142.716 18.144C141.164 18.144 139.748 17.784 138.468 17.064C137.204 16.328 136.204 15.312 135.468 14.016C134.732 12.72 134.364 11.256 134.364 9.624ZM159.023 18.168C157.919 18.168 156.927 17.976 156.047 17.592C155.183 17.192 154.503 16.648 154.007 15.96C153.511 15.256 153.255 14.448 153.239 13.536H155.567C155.647 14.32 155.967 14.984 156.527 15.528C157.103 16.056 157.935 16.32 159.023 16.32C160.063 16.32 160.879 16.064 161.471 15.552C162.079 15.024 162.383 14.352 162.383 13.536C162.383 12.896 162.207 12.376 161.855 11.976C161.503 11.576 161.063 11.272 160.535 11.064C160.007 10.856 159.295 10.632 158.399 10.392C157.295 10.104 156.407 9.816 155.735 9.528C155.079 9.24 154.511 8.792 154.031 8.184C153.567 7.56 153.335 6.728 153.335 5.688C153.335 4.776 153.567 3.968 154.031 3.264C154.495 2.56 155.143 2.016 155.975 1.632C156.823 1.248 157.791 1.056 158.879 1.056C160.447 1.056 161.727 1.448 162.719 2.232C163.727 3.016 164.295 4.056 164.423 5.352H162.023C161.943 4.712 161.607 4.152 161.015 3.672C160.423 3.176 159.639 2.928 158.663 2.928C157.751 2.928 157.007 3.168 156.431 3.648C155.855 4.112 155.567 4.768 155.567 5.616C155.567 6.224 155.735 6.72 156.071 7.104C156.423 7.488 156.847 7.784 157.343 7.992C157.855 8.184 158.567 8.408 159.479 8.664C160.583 8.968 161.471 9.272 162.143 9.576C162.815 9.864 163.391 10.32 163.871 10.944C164.351 11.552 164.591 12.384 164.591 13.44C164.591 14.256 164.375 15.024 163.943 15.744C163.511 16.464 162.871 17.048 162.023 17.496C161.175 17.944 160.175 18.168 159.023 18.168Z" fill="black"/>
</svg>
